<?xml version="1.0" encoding="UTF-8" standalone="no"?>
<!DOCTYPE svg PUBLIC "-//W3C//DTD SVG 1.1//EN" "http://www.w3.org/Graphics/SVG/1.1/DTD/svg11.dtd">
<svg width="100%" height="100%" viewBox="0 0 361 309" version="1.1" xmlns="http://www.w3.org/2000/svg" xmlns:xlink="http://www.w3.org/1999/xlink" xml:space="preserve" xmlns:serif="http://www.serif.com/" style="fill-rule:evenodd;clip-rule:evenodd;stroke-linejoin:round;stroke-miterlimit:2;">
    <g transform="matrix(1,0,0,1,-1574.51,-1262.75)">
        <g id="double-caret-left-small-svgrepo-com.svg" transform="matrix(1.03606,0,0,1.03606,1780.66,1417.63)">
            <g transform="matrix(1,0,0,1,-400,-400)">
                <g transform="matrix(0.918653,0,0,0.918653,27.4536,32.531)">
                    <path d="M384.38,293.334C383.161,297.001 377.452,306.847 377.452,306.847L355.345,322.602L329.561,339.724L277.713,400.001C277.713,400.001 317.557,429.938 326.292,448.58C336.96,471.346 383.43,506.667 383.43,506.667C383.43,506.667 361.41,554.313 346.667,544.379C334.281,536.033 288.476,484.032 280.564,489.062C280.564,489.062 269.956,478.428 264.837,472.979C253.425,460.83 229.627,441.038 229.627,441.038C229.627,441.038 211.715,408.671 205.531,401.979C203.973,400.293 205,398.544 207.628,395.649C210.262,392.748 214.051,385.626 218.715,380.497C226.966,371.421 266.507,331.254 266.507,331.254L290.402,303.038L305.041,293.563C305.041,293.563 337.877,260.771 346.667,255.622C362.007,246.636 387.056,285.284 384.38,293.334ZM544.379,293.334L508.743,308.893L486.341,349.463L438.444,399.669C438.444,399.669 440.443,403.466 442.243,403.506C460.368,403.909 544.379,506.667 544.379,506.667C544.379,506.667 523.221,550.859 506.667,544.379C485.983,536.282 458.957,496.735 420.271,458.086C401.264,439.098 384.803,421.888 376.533,414.333C373.295,411.376 365.388,407.381 365.388,407.381C365.388,407.381 360.911,400.519 362.429,398.835C372.976,387.13 398.924,360.662 425.605,332.799C432.066,326.052 442.36,308.075 442.36,308.075C442.36,308.075 493.588,263.284 506.667,255.622C522.007,246.636 544.379,293.334 544.379,293.334Z" style="fill:rgb(144,23,20);"/>
                </g>
            </g>
        </g>
    </g>
</svg>
