<?xml version="1.0" encoding="UTF-8" standalone="no"?><!DOCTYPE svg PUBLIC "-//W3C//DTD SVG 1.1//EN" "http://www.w3.org/Graphics/SVG/1.1/DTD/svg11.dtd"><svg width="100%" height="100%" viewBox="0 0 1826 1826" version="1.1" xmlns="http://www.w3.org/2000/svg" xmlns:xlink="http://www.w3.org/1999/xlink" xml:space="preserve" xmlns:serif="http://www.serif.com/" style="fill-rule:evenodd;clip-rule:evenodd;"><path d="M773.592,980.771c0,-115.062 93.854,-208.054 208.916,-208.054l346.64,-0.279c115.063,-0 224.813,90.734 208.333,208.333c0,0 2.717,34.528 0,51.468c-9.632,60.048 0,295.754 0,295.754c0,115.063 -112.231,228.57 -208.333,208.334c-96.065,-20.228 -347.222,-0 -347.222,-0c-115.063,-0 -208.334,-93.271 -208.334,-208.334l0,-347.222Z" style="fill:none;fill-rule:nonzero;stroke:#901714;stroke-width:138.89px;"/><path d="M1050.27,495.069c1.098,14.058 -2.197,-28.118 -2.197,-28.118c-0,-115.059 -89.976,-180.624 -205.038,-180.624l-347.222,-0c-115.059,-0 -208.334,93.274 -208.334,208.333l0,347.222c-17.596,104.594 171.2,173.611 208.334,208.334c3.522,3.293 20.018,1.755 20.018,1.755" style="fill:none;fill-rule:nonzero;stroke:#2c251d;stroke-width:138.89px;stroke-linecap:round;"/></svg>